# xmcd
#
# Track frame offsets:
#   187
#   9627
#   24405
#   42482
#
# Disc length: 797 seconds
#
# Revision: 0
# Processed by: cddbd v1.4PL0 Copyright (c) Steve Scherf et al.
# Submitted via: uFREEDB 1.6.0
#
DISCID=28031b04
DTITLE=RCA Single Release Vol 1 - RCA Single Release Vol 1
DYEAR=1991
DGENRE=Country
TTITLE0=Roy Rogers and Clint Black - Hold On Partner
TTITLE1=Matraca Berg - It's Easy To Tell
TTITLE2=Eddie London - Uninvited Memory
TTITLE3=Paul Overstreet - If I Could Bottle This Up
EXTD=
EXTT0=
EXTT1=
EXTT2=
EXTT3=
PLAYORDER=
